HIERARCHY
ROOT Hips
{
     OFFSET 1.88212 96.90440 -13.34250
     CHANNELS 6 Xposition Yposition Zposition Zrotation Xrotation Yrotation
     JOINT Spine
     {
          OFFSET 0.00000 11.89050 0.00000
          CHANNELS 3 Zrotation Xrotation Yrotation
          JOINT Spine1
          {
               OFFSET -0.00000 25.65740 0.12766
               CHANNELS 3 Zrotation Xrotation Yrotation
               JOINT HEad
               {
                    OFFSET 0.00000 8.73416 0.01134
                    CHANNELS 3 Zrotation Xrotation Yrotation
                    End Site
                    {
                         OFFSET -0.29000 12.77420 2.51395
                    }
               }
               JOINT LeftShoulder1
               {
                    OFFSET 8.99000 -0.36225 -0.22000
                    CHANNELS 3 Zrotation Xrotation Yrotation
                    JOINT LeftArm
                    {
                         OFFSET 10.28270 -0.00338 0.32212
                         CHANNELS 3 Zrotation Xrotation Yrotation
                         JOINT LeftForeArm
                         {
                              OFFSET 32.76690 0.09914 -1.42434
                              CHANNELS 3 Zrotation Xrotation Yrotation
                              JOINT LeftHand
                              {
                                   OFFSET 27.56430 0.08536 1.02216
                                   CHANNELS 3 Zrotation Xrotation Yrotation
                                   End Site
                                   {
                                        OFFSET 16.74430 -0.60000 1.50291
                                   }
                              }
                         }
                    }
               }
               JOINT RightShoulder
               {
                    OFFSET -8.99000 -0.36225 -0.22000
                    CHANNELS 3 Zrotation Xrotation Yrotation
                    JOINT RightArm
                    {
                         OFFSET -10.28270 -0.00338 0.32212
                         CHANNELS 3 Zrotation Xrotation Yrotation
                         JOINT RightForeArm
                         {
                              OFFSET -32.89710 0.09914 -1.42434
                              CHANNELS 3 Zrotation Xrotation Yrotation
                              JOINT RightHand
                              {
                                   OFFSET -27.49210 0.08536 1.02216
                                   CHANNELS 3 Zrotation Xrotation Yrotation
                                   End Site
                                   {
                                        OFFSET -16.63120 -0.60000 1.50291
                                   }
                              }
                         }
                    }
               }
          }
     }
     JOINT LeftUpLeg
     {
          OFFSET 8.94580 -8.66707 0.10165
          CHANNELS 3 Zrotation Xrotation Yrotation
          JOINT LeftLeg
          {
               OFFSET 0.00000 -44.42270 1.37270
               CHANNELS 3 Zrotation Xrotation Yrotation
               JOINT LeftFoot
               {
                    OFFSET -0.25355 -42.09240 -1.46059
                    CHANNELS 3 Zrotation Xrotation Yrotation
                    JOINT LeftToes
                    {
                         OFFSET -0.04000 -4.41509 8.49910
                         CHANNELS 3 Zrotation Xrotation Yrotation
                         End Site
                         {
                              OFFSET 0.08000 -0.04745 9.77979
                         }
                    }
               }
          }
     }
     JOINT RightUpLeg
     {
          OFFSET -8.94580 -8.66707 0.10165
          CHANNELS 3 Zrotation Xrotation Yrotation
          JOINT RightLeg
          {
               OFFSET 0.00000 -44.42270 1.37270
               CHANNELS 3 Zrotation Xrotation Yrotation
               JOINT RightFoot
               {
                    OFFSET 0.25355 -42.09240 -1.46059
                    CHANNELS 3 Zrotation Xrotation Yrotation
                    JOINT RightToes
                    {
                         OFFSET 0.04000 -4.41509 8.49910
                         CHANNELS 3 Zrotation Xrotation Yrotation
                         End Site
                         {
                              OFFSET -0.08000 -0.13745 9.77979
                         }
                    }
               }
          }
     }
}
MOTION
Frames: 21
Frame Time: 0.01667
-322.40002 90.62071 -99.00142 -4.91979 5.60041 -165.33142 3.93144 17.65355 10.22958 0.01675 -0.00712 -0.01482 -31.48666 13.15146 23.80668 11.78253 -4.65492 0.08862 11.10327 -77.86102 29.98731 -36.41670 45.97119 -107.27667 4.05124 9.33770 1.18196 34.33606 -1.90386 7.02410 37.32090 -11.11666 59.56155 21.53525 36.08374 105.69499 -6.20614 16.58623 -2.10850 20.53053 -24.60741 12.37173 -3.12484 24.66487 1.90247 5.97459 -0.02491 -0.04652 -25.84465 -5.31864 -2.91923 -27.71449 -3.68125 -10.46600 -17.20379 43.38424 46.01669 12.74225 -0.10571 -0.03391 -5.67966 -41.45169 -32.53539 
-319.85974 90.00880 -97.78857 -4.70569 4.55517 -164.60284 3.43176 16.95057 10.97494 0.01313 -0.00429 -0.01532 -31.52807 12.05799 23.19183 11.66981 -4.20402 -0.93516 13.95682 -78.21070 33.68536 -37.00200 46.11896 -106.84542 4.20535 9.42237 -0.40388 33.49981 -1.88300 6.04534 39.56291 -10.40676 61.19474 21.36834 36.11874 105.28167 -5.89495 16.29523 -2.49248 22.22242 -26.27693 14.18196 -4.38076 24.22435 0.89984 10.05618 -0.01100 -0.04644 -28.50856 -4.34340 -3.56230 -26.90565 0.45378 -5.67818 -8.76164 36.93182 35.05578 10.83943 -0.08751 0.02747 -16.43158 -51.07788 -26.91130 
-317.41074 89.45393 -96.69269 -4.40754 3.67587 -163.99825 3.22508 16.33813 11.51483 0.01037 -0.00193 -0.01582 -31.58897 11.11507 22.90543 11.37969 -3.49719 -1.87771 17.52666 -78.83430 38.24103 -37.70264 46.51875 -106.34618 4.52238 8.81078 0.16571 32.64997 -1.56986 4.98532 41.44909 -9.92496 62.87542 21.31066 36.20674 104.83337 -5.69016 15.84742 -2.78967 23.53259 -27.68824 15.73717 -3.48529 24.07512 -2.64547 12.18286 0.03408 -0.01428 -30.29114 -3.88644 -2.70276 -25.62692 4.56024 -0.30144 -2.86418 29.63286 24.36129 10.93879 -0.09615 -0.02900 -10.21482 -41.97252 -27.14980 
-315.04749 88.96576 -95.74326 -4.10098 3.03721 -163.48660 3.23044 15.88019 11.84943 0.00787 -0.00149 -0.01628 -31.65335 10.35259 22.95380 10.93197 -2.70358 -2.68003 21.41056 -79.54323 43.20646 -38.56884 47.16423 -105.81973 4.67156 8.63562 -0.96097 31.94604 -1.09500 4.00105 42.91040 -9.57900 64.33422 21.28784 36.33393 104.43078 -5.69047 15.42559 -2.94270 24.28528 -28.86590 16.89443 -1.21896 23.96152 -8.13456 13.07255 0.03476 -0.00299 -18.78303 5.47925 -8.06445 -24.71795 8.25733 4.67909 1.91923 24.10153 14.11088 7.50305 -0.16888 0.05443 -9.75846 -44.15259 -22.02974 
-312.82651 88.51196 -94.96492 -3.79709 2.64210 -163.03851 3.41923 15.56378 11.96748 0.00634 -0.00026 -0.01655 -31.19389 10.68239 24.43624 10.46226 -1.85291 -3.41639 25.69468 -80.31075 48.67614 -39.55121 47.96601 -105.18723 4.88375 8.33212 -0.81058 31.21892 -0.52450 3.06617 44.24221 -9.24859 65.59913 21.27765 36.45944 104.02090 -5.79561 14.96549 -3.01300 24.54551 -29.74904 17.63745 0.60022 23.19754 -12.74263 14.25478 0.03993 -0.02374 -29.38407 1.51465 -1.04055 -24.12110 11.46131 9.27499 6.26869 19.44354 4.91025 7.29831 -0.12941 0.00003 -8.78893 -42.05757 -18.54168 
-310.80292 88.10025 -94.34715 -3.50174 2.48322 -162.62450 3.78834 15.34629 11.86889 0.00554 -0.00072 -0.01528 -30.47413 12.31651 27.01633 10.07355 -1.11682 -3.93749 29.06424 -81.07784 53.25393 -40.66796 48.82441 -104.39323 4.89701 8.43322 -1.72919 30.65788 0.00474 2.32114 45.31363 -8.87705 66.48426 21.25227 36.55884 103.60660 -6.02279 14.54576 -2.84106 24.42286 -30.26750 18.00356 2.18633 22.12361 -16.54436 15.46225 0.03434 -0.02482 -30.29625 4.30636 0.55590 -23.77602 14.16713 13.46872 10.15130 15.23872 -2.70193 4.36801 -0.18306 0.03105 -7.66548 -43.07468 -14.11238 
-308.93225 87.83944 -93.79977 -3.21576 2.52200 -162.24501 4.27788 15.19941 11.59315 0.00217 0.00009 -0.01390 -29.89761 13.95192 29.55454 9.55746 -0.34052 -4.27727 31.50280 -81.98237 56.62381 -41.78456 49.60931 -103.46156 4.92341 8.38041 -1.62949 30.06462 0.63517 1.71493 46.36049 -8.49883 67.15514 21.18303 36.63000 103.17800 -6.03814 14.03477 -2.87452 24.08748 -30.39922 18.08418 3.54016 20.95124 -19.49042 16.66566 0.02705 -0.02162 -34.36721 3.91566 4.87668 -22.92949 15.63736 16.46946 12.79236 12.46676 -7.84834 4.08103 -0.13917 0.01848 -8.81264 -43.06557 -11.64402 
-307.24420 87.71751 -93.32472 -2.93087 2.71392 -161.92531 4.83660 15.09323 11.20634 -0.00060 0.00059 -0.01189 -29.45873 15.60338 32.00440 8.94295 0.40061 -4.40381 32.15108 -82.98655 57.91653 -42.82881 50.25437 -102.44733 4.88540 8.63200 -2.11353 29.48243 1.30159 1.32238 47.28951 -8.15760 67.55508 21.06882 36.67131 102.71356 -5.97419 13.69895 -2.81410 23.76299 -30.30327 18.05941 4.44886 21.27674 -20.19825 18.54133 -0.00043 -0.00370 -35.74932 3.54298 5.71428 -21.63851 16.14324 18.28279 14.16337 11.18345 -10.55561 1.94727 -0.13702 0.02616 -8.52524 -43.55955 -10.26989 
-305.74747 87.77393 -92.91154 -2.64316 3.01154 -161.69209 5.41651 15.00695 10.76344 -0.00262 0.00129 -0.01053 -29.16854 17.27221 34.34296 8.27637 1.10626 -4.41396 31.32937 -83.99393 57.49077 -43.68851 50.68721 -101.48039 4.92223 8.98664 -1.99913 28.84464 1.96392 1.04803 48.12257 -7.79786 67.84056 20.91504 36.66378 102.20327 -5.70809 13.43124 -2.74998 23.58212 -30.12999 18.07505 4.94911 22.38464 -18.94913 20.76956 -0.02574 0.02214 -37.79164 7.77389 20.98952 -20.01210 16.01505 18.96838 14.11243 9.45338 -11.57537 3.39143 -0.13090 0.00003 -10.26590 -41.20297 -9.43751 
-304.45764 88.00407 -92.57675 -2.35780 3.37686 -161.55098 5.97999 14.92440 10.30188 -0.00380 0.00169 -0.00889 -29.05054 18.96023 36.54579 7.57829 1.74542 -4.28266 28.84245 -84.95686 55.19844 -44.39223 50.94545 -100.59303 4.92442 9.35182 -2.18618 28.08042 2.60639 0.93064 48.88343 -7.45448 68.01862 20.72862 36.60962 101.67834 -5.45985 13.12940 -2.59747 23.59528 -29.97645 18.20219 5.02328 24.01917 -16.21775 23.19395 -0.04908 0.04733 -37.93619 6.15674 10.77369 -18.17256 15.39172 18.61566 13.23289 9.90950 -10.52053 4.21725 -0.13812 0.01654 -11.13070 -39.67660 -10.03199 
-303.38010 88.36364 -92.33754 -2.07775 3.78383 -161.49428 6.51059 14.82955 9.83776 -0.00410 0.00171 -0.00754 -29.11162 20.61874 38.61311 6.89436 2.28330 -4.04628 24.78913 -85.77970 51.21204 -44.92358 51.06293 -99.88000 4.95643 9.81147 -2.13161 27.20823 3.15702 0.85243 49.55737 -7.04170 68.16328 20.55717 36.52958 101.15624 -5.16999 12.90416 -2.37641 23.83394 -29.87307 18.47324 4.56367 26.05698 -12.47230 25.80511 -0.06405 0.07125 -38.92469 6.02278 9.70837 -16.25094 14.24075 17.29595 12.18774 13.82385 -8.38300 4.49685 -0.04343 -0.00604 -11.19521 -40.90141 -10.90154 
-302.50543 88.79859 -92.20351 -1.79308 4.17587 -161.49135 7.00107 14.67283 9.37484 -0.00408 0.00217 -0.00568 -29.34032 22.21795 40.53101 6.21810 2.77509 -3.67071 -26.32212 -90.00000 0.00000 -45.37331 51.11301 -99.27840 4.95146 10.09962 -2.13636 26.22177 3.71329 0.95208 50.13965 -6.79253 68.27476 20.44047 36.42553 100.63160 -4.91298 12.67672 -2.22799 24.16614 -29.70827 18.80231 4.34003 26.65992 -9.54116 27.46156 -0.02397 0.02949 -39.93315 6.00540 3.96146 -14.74006 13.25210 16.07754 11.03079 16.93770 -6.54824 5.78995 -0.05107 0.00668 -11.49471 -41.43670 -10.19595 
-301.80005 89.27104 -92.14104 -1.50176 4.53027 -161.51648 7.43619 14.44701 8.91682 -0.00468 0.00317 -0.00393 -29.70497 23.70552 42.28642 5.51229 3.25156 -3.20306 -26.13087 -90.00000 0.00000 -45.74099 51.11723 -98.77125 4.95739 10.54429 -1.99915 25.15489 4.28040 1.16335 50.61884 -6.68953 68.42655 20.39080 36.30012 100.10563 -4.66491 12.48422 -2.01273 24.43863 -29.35071 19.08661 4.26062 26.33811 -7.37380 28.42267 -0.00521 0.00723 -41.32583 6.98363 1.60070 -13.59797 12.48181 14.92041 9.64412 17.60489 -4.80493 14.33266 -0.18983 -0.02965 -4.83531 -29.31354 7.53364 
-301.21664 89.73642 -92.12331 -1.19949 4.82835 -161.54988 7.80382 14.13652 8.47165 -0.00527 0.00325 -0.00227 -30.17494 25.07423 43.86838 4.77076 3.63002 -2.65376 -25.80466 -90.00000 0.00000 -46.05328 51.13201 -98.34373 4.96848 10.65633 -1.93861 24.18137 4.78323 1.52835 50.83069 -6.76436 68.52483 20.40743 36.14425 99.57836 -4.47884 12.35551 -1.88499 24.56286 -28.73935 19.25101 4.20780 25.41707 -5.84802 28.84075 0.00613 -0.00081 -42.20616 8.37979 -1.29294 -12.74880 11.85118 13.77648 8.48193 18.80834 -3.18030 11.85755 -0.01755 -0.01361 -7.57725 -34.97862 0.67263 
-300.70932 90.21371 -92.12939 -0.88905 5.05230 -161.58554 8.09276 13.75401 8.05078 -0.00506 0.00446 -0.00090 -30.71269 26.27177 45.25854 4.11034 4.00685 -2.08834 -25.48725 -90.00000 0.00000 -46.35497 51.16204 -97.92822 5.01057 10.86247 -1.68415 22.95852 5.27283 1.91509 51.18725 -6.91653 68.73243 20.50721 35.96474 99.02548 -4.38456 12.06136 -1.68616 24.51278 -27.87745 19.27906 4.11834 24.10663 -4.82480 28.80556 0.01200 -0.00286 -41.56184 10.14705 -2.69402 -12.12373 11.25628 12.61504 7.53750 20.21150 -1.60802 15.08823 -0.02789 0.01395 0.16960 -20.29704 20.27032 
-300.27615 90.65791 -92.16322 -0.57419 5.20250 -161.61859 8.29461 13.31551 7.65359 -0.00518 0.00516 -0.00052 -31.30254 27.27429 46.46635 3.49784 4.34910 -1.59005 -25.13792 -90.00000 0.00000 -46.61184 51.20893 -97.52811 4.98056 10.87991 -1.59926 21.94383 5.72587 2.34000 51.28442 -7.19538 69.02017 20.67595 35.76667 98.46006 -4.35017 12.04613 -1.46854 24.30308 -26.80723 19.19616 4.02006 22.53386 -4.12922 28.33229 0.01408 -0.00326 -41.58946 10.44821 -3.63745 -11.70429 10.63963 11.43149 6.77202 21.71988 -0.03041 15.76005 -0.02310 0.00567 -3.52587 -27.21928 12.77404 
-299.90607 91.08617 -92.23169 -0.26710 5.28268 -161.65347 8.39938 12.84391 7.28526 -0.00502 0.00591 -0.00023 -31.90252 28.05741 47.49057 2.95639 4.67093 -1.15385 -24.80530 -90.00000 0.00000 -46.86976 51.28790 -97.09119 5.02418 10.83970 -1.37964 21.07675 6.14721 2.75767 51.26239 -7.54203 69.42934 20.89556 35.54382 97.87697 -4.47029 11.79485 -1.22091 23.97202 -25.58695 19.03123 3.91918 20.79066 -3.67797 27.44572 0.01402 -0.00209 -40.12777 10.88860 -3.91971 -11.46703 9.95983 10.23462 6.25415 23.24704 1.59790 17.64469 -0.02288 0.01742 3.21202 -6.96504 21.75656 
-299.58603 91.50158 -92.33168 0.01965 5.30714 -161.69269 8.40496 12.35918 6.94779 -0.00471 0.00591 -0.00011 -32.47757 28.61881 48.33422 2.49427 4.94403 -0.75330 -24.49512 -90.00000 0.00000 -47.15493 51.38981 -96.59203 4.99814 10.76710 -1.27382 20.40319 6.52432 3.19958 51.11852 -7.95563 69.90949 21.12742 35.30008 97.30360 -4.58232 11.75150 -0.97285 23.55290 -24.27933 18.82303 3.86051 18.94621 -3.46022 26.15109 0.01227 0.00005 -38.37656 11.21318 -4.17622 -11.41479 9.19687 9.03856 5.90665 24.79264 3.31016 18.72306 -0.02368 0.01310 2.83511 -8.59970 17.25104 
-299.31842 91.89944 -92.46608 0.27501 5.29552 -161.72787 8.32319 11.87813 6.63175 -0.00387 0.00567 -0.00011 -33.02089 28.96516 49.00814 2.15367 5.17666 -0.37874 -24.27895 -90.00000 0.00000 -47.41574 51.49453 -96.08922 5.07098 10.58553 -1.20694 19.70997 6.83656 3.57124 51.13764 -8.29530 70.48799 21.35816 35.06944 96.74496 -4.81083 11.42139 -0.73665 23.06820 -22.95141 18.60093 3.88215 17.07273 -3.48268 24.46617 0.00904 0.00281 -36.01887 11.68386 -3.76306 -11.52066 8.36148 7.83974 5.74314 26.36171 5.08594 19.79267 -0.02135 0.01327 2.15228 -8.20614 18.01405 
-299.09906 92.25999 -92.62153 0.49308 5.26677 -161.75824 8.17007 11.40646 6.33655 -0.00297 0.00481 0.00004 -33.53639 29.14374 49.52507 1.90767 5.32443 -0.00501 -24.14893 -90.00000 0.00000 -47.68710 51.63091 -95.55391 4.99385 10.32706 -1.12292 19.24195 7.06860 3.93880 51.11810 -8.58529 71.03694 21.56909 34.87141 96.20360 -5.06864 11.26215 -0.52051 22.54306 -21.66668 18.38405 4.00696 15.24211 -3.70997 22.41311 0.00500 0.00546 -34.19315 11.72890 -3.55192 -11.77801 7.46258 6.66731 5.69634 27.97299 6.90575 20.30322 -0.02018 0.00877 2.10733 -9.47062 15.00791 
-298.89722 92.58733 -92.78139 0.64537 5.27491 -161.77022 7.96159 10.99130 6.04148 -0.00155 0.00396 -0.00017 -34.00771 29.16943 49.89903 1.77316 5.41386 0.34212 -24.12266 -90.00000 0.00000 -47.95134 51.78910 -95.04512 4.96731 10.18585 -1.08966 18.91505 7.23917 4.28759 51.17009 -8.82525 71.55888 21.75844 34.69614 95.72748 -5.41732 11.01043 -0.24814 21.98596 -20.43320 18.14122 4.20910 13.51753 -4.08119 20.04373 0.00075 0.00773 -31.98056 11.57862 -2.97469 -12.17228 6.56325 5.54280 5.70923 29.56399 8.47172 20.22616 -0.02125 -0.00070 1.49129 -11.12525 13.92217 
